<svg xmlns="http://www.w3.org/2000/svg" xmlns:xlink="http://www.w3.org/1999/xlink" width="564" height="168"><defs><radialGradient xlink:href="#a" id="b" cx="113" cy="-12.89" fx="113" fy="-12.89" r="59.662" gradientTransform="matrix(0 1.96105 -1.97781 0 254.507 78.763)" gradientUnits="userSpaceOnUse"/><linearGradient id="a"><stop offset="0" stop-color="#fff" stop-opacity=".098"/><stop offset="1" stop-color="#fff" stop-opacity="0"/></linearGradient></defs><g transform="translate(-330 -353.362)"><rect style="marker:none" width="560" height="164" x="332" y="355.362" rx="20" ry="20" overflow="visible" color="#000" stroke="#a6a6a6" stroke-width="4"/><text y="402.367" x="508.951" style="line-height:100%;-inkscape-font-specification:'DejaVu Sans';marker:none" font-weight="400" font-size="12.395" letter-spacing="0" word-spacing="0" overflow="visible" color="#000" font-family="DejaVu Sans" fill="#fff"><tspan y="402.367" x="508.951" style="-inkscape-font-specification:'DejaVu Sans'" font-size="34.125">GET IT ON</tspan></text><text style="line-height:100%;-inkscape-font-specification:'Rokkitt Bold';text-align:start;marker:none" x="508.213" y="489.361" font-weight="700" font-size="29.709" letter-spacing="0" word-spacing="0" overflow="visible" color="#000" font-family="Rokkitt" fill="#fff"><tspan x="508.213" y="489.361" style="line-height:100%;-inkscape-font-specification:'Roboto Slab Bold';text-align:start" font-size="95" font-family="Roboto Slab">F-Droid</tspan></text><g fill-rule="evenodd"><path d="M2.589 1006.862l4.25 5.5" transform="matrix(-2.63159 0 0 2.63157 483.158 -2270.475)" fill="#8ab000" stroke="#769616" stroke-width="2.5" stroke-linecap="round"/><path style="line-height:normal;text-indent:0;text-align:start;text-decoration-line:none;text-decoration-style:solid;text-decoration-color:#000;text-transform:none;white-space:normal;isolation:auto;mix-blend-mode:normal;solid-color:#000;solid-opacity:1" d="M476.286 375.862c1.193.031 2.004.497 2.58 1.18-5.333 6.34-6.232 7.347-13.514 16.372-2.683 3.472-5.478 1.678-2.795-1.793l11.185-14.474c.602-.804 1.54-1.258 2.544-1.285z" font-weight="400" overflow="visible" color="#000" font-family="sans-serif" fill="#fff" fill-opacity=".298"/><path style="line-height:normal;text-indent:0;text-align:start;text-decoration-line:none;text-decoration-style:solid;text-decoration-color:#000;text-transform:none;white-space:normal;isolation:auto;mix-blend-mode:normal;solid-color:#000;solid-opacity:1" d="M478.89 377.075c.325.39 1.476 2.118.058 4.096l-11.184 14.473c-2.683 3.471-3.026-1.611-3.026-1.611s9.828-11.869 14.151-16.958z" font-weight="400" overflow="visible" color="#000" font-family="sans-serif" fill="#263238" fill-opacity=".2"/><path style="line-height:normal;text-indent:0;text-align:start;text-decoration-line:none;text-decoration-style:solid;text-decoration-color:#000;text-transform:none;white-space:normal;isolation:auto;mix-blend-mode:normal;solid-color:#000;solid-opacity:1" d="M477.006 376.48c1.153 0 2.525.373 2.169 2.102-.273 1.32-12.266 15.985-12.266 15.985-2.683 3.47-6.562 1.78-3.879-1.691l11.143-14.402c.685-.763 1.602-1.957 2.833-1.994z" font-weight="400" overflow="visible" color="#000" font-family="sans-serif" fill="#8ab000"/></g><g fill-rule="evenodd"><path d="M2.589 1006.862l4.25 5.5" transform="matrix(2.63159 0 0 2.63157 356.842 -2270.475)" fill="#8ab000" stroke="#769616" stroke-width="2.5" stroke-linecap="round"/><path d="M363.714 375.862c-1.193.031-2.004.497-2.58 1.18 5.333 6.34 6.232 7.347 13.514 16.372 2.683 3.472 5.478 1.678 2.795-1.793l-11.185-14.474c-.602-.804-1.54-1.258-2.544-1.285z" style="line-height:normal;text-indent:0;text-align:start;text-decoration-line:none;text-decoration-style:solid;text-decoration-color:#000;text-transform:none;white-space:normal;isolation:auto;mix-blend-mode:normal;solid-color:#000;solid-opacity:1" font-weight="400" overflow="visible" color="#000" font-family="sans-serif" fill="#fff" fill-opacity=".298"/><path d="M361.11 377.075c-.325.39-1.476 2.118-.058 4.096l11.184 14.473c2.683 3.471 3.026-1.611 3.026-1.611s-9.828-11.869-14.151-16.958z" style="line-height:normal;text-indent:0;text-align:start;text-decoration-line:none;text-decoration-style:solid;text-decoration-color:#000;text-transform:none;white-space:normal;isolation:auto;mix-blend-mode:normal;solid-color:#000;solid-opacity:1" font-weight="400" overflow="visible" color="#000" font-family="sans-serif" fill="#263238" fill-opacity=".2"/><path d="M362.995 376.48c-1.153 0-2.526.373-2.17 2.102.273 1.32 12.266 15.985 12.266 15.985 2.683 3.47 6.562 1.78 3.879-1.691l-11.143-14.402c-.685-.763-1.602-1.957-2.832-1.994z" style="line-height:normal;text-indent:0;text-align:start;text-decoration-line:none;text-decoration-style:solid;text-decoration-color:#000;text-transform:none;white-space:normal;isolation:auto;mix-blend-mode:normal;solid-color:#000;solid-opacity:1" font-weight="400" overflow="visible" color="#000" font-family="sans-serif" fill="#8ab000"/></g><g transform="matrix(2.63159 0 0 2.63157 467.369 -2270.475)"><rect ry="3" rx="3" y="1010.36" x="-37" height="12.92" width="38" fill="#aeea00"/><rect width="38" height="10" x="-37" y="1013.279" rx="3" ry="3" fill="#263238" fill-opacity=".2"/><rect width="38" height="10" x="-37" y="1010.362" rx="3" ry="3" fill="#fff" fill-opacity=".298"/><rect width="38" height="10.641" x="-37" y="1011.5" rx="3" ry="2.456" fill="#aeea00"/></g><g transform="matrix(2.63159 0 0 2.63157 356.842 -2270.745)"><rect ry="3" rx="3" y="1024.522" x="5" height="25.84" width="38" fill="#1976d2"/><rect width="38" height="13" x="5" y="1037.362" rx="3" ry="3" fill="#263238" fill-opacity=".2"/><rect width="38" height="13" x="5" y="1024.442" rx="3" ry="3" fill="#fff" fill-opacity=".2"/><rect width="38" height="23.56" x="5" y="1025.662" rx="3" ry="2.718" fill="#1976d2"/></g><g transform="matrix(2.63159 0 0 2.63157 356.842 396.264)"><path d="M24 17.75c-2.88 0-5.32 1.985-6.033 4.65h3.213A3.215 3.215 0 0124 20.75 3.228 3.228 0 0127.25 24 3.228 3.228 0 0124 27.25a3.219 3.219 0 01-2.93-1.85h-3.154c.642 2.766 3.132 4.85 6.084 4.85 3.434 0 6.25-2.816 6.25-6.25s-2.816-6.25-6.25-6.25z" style="line-height:normal;text-indent:0;text-align:start;text-decoration-line:none;text-decoration-style:solid;text-decoration-color:#000;text-transform:none;white-space:normal;isolation:auto;mix-blend-mode:normal;solid-color:#000;solid-opacity:1" font-weight="400" overflow="visible" color="#000" font-family="sans-serif" fill="#0d47a1"/><circle r="9.55" cy="24" cx="24" fill="none" stroke="#0d47a1" stroke-width="1.9" stroke-linecap="round"/></g><g transform="matrix(2.63159 0 0 2.63157 356.842 -2269.159)"><ellipse ry="3.875" rx="3.375" cx="14.375" cy="1016.487" fill="#263238" fill-opacity=".2"/><circle r="3.375" cy="1016.987" cx="14.375" fill="#fff"/></g><g transform="matrix(2.63159 0 0 2.63157 408.158 -2269.159)"><ellipse cy="1016.487" cx="14.375" rx="3.375" ry="3.875" fill="#263238" fill-opacity=".2"/><circle cx="14.375" cy="1016.987" r="3.375" fill="#fff"/></g><path d="M282.715 299.835a3.29 3.29 0 00-2.662 5.336l9.474 12.261a7.894 7.894 0 00-.527 2.825v18.21a7.877 7.877 0 007.895 7.895h84.21a7.877 7.877 0 007.895-7.894v-18.211c0-.999-.19-1.949-.525-2.826l9.472-12.26a3.29 3.29 0 00-2.433-5.334 3.29 3.29 0 00-2.772 1.31l-9.013 11.666a7.91 7.91 0 00-2.624-.45h-84.21c-.922 0-1.8.163-2.622.45l-9.015-11.666a3.29 3.29 0 00-2.543-1.312zm14.18 49.527a7.877 7.877 0 00-7.895 7.895v52.21a7.877 7.877 0 007.895 7.895h84.21a7.877 7.877 0 007.895-7.894v-52.211a7.877 7.877 0 00-7.895-7.895z" style="line-height:normal;text-indent:0;text-align:start;text-decoration-line:none;text-decoration-style:solid;text-decoration-color:#000;text-transform:none;white-space:normal;isolation:auto;mix-blend-mode:normal;solid-color:#000;solid-opacity:1" font-weight="400" overflow="visible" transform="translate(81 76)" color="#000" font-family="sans-serif" fill="url(#b)" fill-rule="evenodd"/></g></svg>