<svg xmlns="http://www.w3.org/2000/svg" width="147" height="147" viewBox="28.386 1.317 147 147" overflow="visible" xml:space="preserve" style="-webkit-filter:drop-shadow(0 0 5px rgba(0,0,0,.7));filter:drop-shadow(0 0 5px rgba(0,0,0,.7))"><linearGradient id="a" gradientUnits="userSpaceOnUse" x1="125.566" y1="662.853" x2="105.649" y2="682.77" gradientTransform="translate(0 -614.771)"><stop offset="0" style="stop-color:#6d6d6d"/><stop offset="1" style="stop-color:#5d5d5d"/></linearGradient><path fill="url(#a)" d="M175.622 137.972 35.676-1.977l19.915-19.915 139.948 139.947z"/><g fill="#FFF"><path d="M82.988 18.34c.518-.516.858-.888 1.026-1.115l3.66 3.66-1.271 1.272c-.145-.19-.414-.482-.811-.879l-1.38-1.38-1.779 1.778 1.152 1.152c.35.349.619.597.809.741l-1.25 1.25a6.781 6.781 0 0 0-.638-.706l-1.255-1.256-2.388 2.388c-.448.448-.772.803-.973 1.061l-1.479-1.48c.25-.19.623-.532 1.116-1.026l5.461-5.46zM82.625 31.194c-.73-.729-1.024-1.531-.88-2.406.137-.76.588-1.522 1.354-2.29 1.716-1.716 3.278-1.871 4.687-.463 1.392 1.392 1.229 2.944-.487 4.661-.759.76-1.52 1.207-2.278 1.345-.876.157-1.674-.126-2.396-.847zm4.032-4.056c-.351-.349-.747-.413-1.195-.19-.258.121-.611.405-1.06.854-.447.448-.732.801-.854 1.061-.22.447-.157.847.192 1.193.349.349.741.416 1.183.204.258-.122.615-.411 1.071-.866.446-.447.731-.801.854-1.06.221-.45.158-.846-.191-1.196zM85.557 33.971c.174-.13.444-.376.811-.741l3.544-3.544c.355-.355.593-.613.708-.772l1.248 1.249-.346.341c.492-.038.898.102 1.217.42.137.136.254.313.354.531l-1.29 1.29c-.059-.335-.167-.583-.327-.741-.212-.212-.553-.333-1.021-.362l-2.771 2.771c-.388.388-.658.68-.811.876l-1.316-1.318zM88.84 37.253c.174-.13.444-.376.809-.741l6.086-6.086c.357-.356.595-.615.708-.773l1.293 1.293c-.167.122-.417.351-.752.685l-3.201 3.202 1.801-.249c.258-.03.475-.08.647-.148l1.474 1.472-3.488.432-1.469 4.822-1.334-1.334c.083-.146.188-.427.317-.846l.957-3.055-1.744 1.744c-.388.388-.656.68-.81.876l-1.294-1.294zM103.463 42.625c.691.068 1.301.365 1.825.89.594.595.775 1.311.549 2.146-.196.684-.637 1.367-1.32 2.052l-1.562 1.561c-.519.519-.854.882-1.004 1.094l-1.359-1.359c.28-.207.656-.545 1.128-1.017l1.54-1.54c.836-.836 1.027-1.482.573-1.938-.312-.31-.603-.479-.874-.51-.252.388-.575.78-.971 1.175l-1.563 1.563c-.518.517-.853.881-1.005 1.093l-1.37-1.37c.28-.207.656-.545 1.127-1.017l1.551-1.529c.479-.479.766-.852.856-1.117.092-.266.021-.516-.214-.75-.229-.227-.55-.343-.967-.35l-2.841 2.84a8.913 8.913 0 0 0-.423.456c-.15.174-.24.271-.263.296l-1.326-1.326c.152-.105.402-.335.752-.684l3.555-3.558c.411-.409.666-.687.767-.831l1.249 1.271-.371.356c.6.069 1.048.253 1.344.55.449.45.655.968.617 1.553zM108.686 52.813l-2.528-2.528c-.669.79-.674 1.516-.013 2.177.435.433.923.702 1.473.808l-1.221 1.219c-.631-.281-1.125-.602-1.48-.957-.753-.754-1.081-1.592-.982-2.511.083-.874.526-1.713 1.332-2.518.685-.684 1.424-1.096 2.221-1.24.884-.15 1.643.092 2.279.731.624.624.893 1.313.8 2.074-.091.715-.471 1.404-1.139 2.072-.26.258-.507.483-.742.673zm.067-3.734c-.441-.441-.964-.392-1.569.154l1.403 1.402c.559-.588.614-1.106.166-1.556zM111.427 59.995c-.729-.73-1.022-1.532-.88-2.407.137-.759.588-1.522 1.354-2.29 1.719-1.716 3.278-1.871 4.688-.463 1.392 1.392 1.229 2.946-.486 4.662-.76.759-1.52 1.207-2.277 1.344-.878.159-1.677-.123-2.399-.846zm4.032-4.054c-.351-.35-.746-.412-1.194-.191-.259.122-.61.407-1.06.854-.449.448-.733.803-.854 1.061-.221.447-.157.846.191 1.194.35.35.743.415 1.184.203.259-.122.615-.41 1.07-.866.448-.447.732-.802.854-1.06.221-.45.158-.847-.191-1.195zM121.826 60.032c.624.606.833 1.349.628 2.222-.176.737-.602 1.443-1.275 2.12l-1.562 1.562c-.518.518-.853.881-1.005 1.093l-1.369-1.369c.195-.152.567-.495 1.114-1.028l1.553-1.527c.865-.852 1.021-1.555.471-2.105-.25-.25-.633-.382-1.149-.396l-2.805 2.807c-.13.13-.271.279-.423.457-.152.174-.24.271-.263.295l-1.326-1.325c.149-.107.399-.335.751-.687l3.499-3.5c.438-.438.711-.731.811-.876l1.261 1.262-.411.408c.642.031 1.144.229 1.5.587zM126.559 73.696c-.28.082-.627.062-1.037-.063-.501-.152-.965-.44-1.39-.866-1.886-1.886-1.509-4.146 1.13-6.783 1.254-1.255 2.479-1.945 3.671-2.074 1.194-.129 2.31.321 3.343 1.356.595.594.916 1.296.971 2.109l-1.301 1.299c-.064-.908-.366-1.632-.906-2.172-1.119-1.119-2.565-.791-4.34.983-1.8 1.798-2.244 3.147-1.341 4.055.737.736 1.563.649 2.476-.263.099-.084.388-.389.867-.91l1.393 1.392c-.354.298-.732.645-1.127 1.039l-1.322 1.321c-.212.213-.4.416-.567.613a8.474 8.474 0 0 1-.354.397.94.94 0 0 1-.239-.239l.073-1.194zM127.679 76.093c.167-.138.434-.388.797-.753l3.545-3.545c.357-.356.599-.611.721-.763l1.279 1.28c-.157.13-.403.361-.738.695l-3.498 3.499c-.39.388-.661.677-.821.865l-1.285-1.278zm6.595-5.292c-.219-.22-.32-.49-.312-.813.013-.321.133-.599.361-.825a1.22 1.22 0 0 1 .838-.373c.322-.013.595.092.813.313.212.211.313.479.301.805-.014.32-.137.602-.372.838a1.187 1.187 0 0 1-.825.359 1.056 1.056 0 0 1-.804-.304zM136.453 74.746l.981.982-1.104 1.104a4.15 4.15 0 0 1-.198-.222 7.119 7.119 0 0 0-.276-.301l-.484-.483-2.12 2.12c-.509.51-.598.931-.265 1.265.235.235.514.382.834.44l-1.141 1.141c-.434-.13-.848-.394-1.243-.788-.557-.556-.742-1.138-.562-1.746.137-.455.522-1.003 1.162-1.641l2.039-2.039.011.011.022-.021-.161-.184a4.008 4.008 0 0 0-.427-.356l1.105-1.104.563.563.446-.445c.214-.214.374-.396.482-.549l1.326 1.326a4.087 4.087 0 0 0-.526.458l-.464.469zM142.807 81.917l.376.377-1.248 1.248-.377-.376-2.604 2.604c-.357.356-.608.639-.753.843l-1.491-1.492c.226-.168.529-.441.909-.82l2.538-2.538-2.077-2.077-2.527 2.526c-.409.41-.688.717-.832.921l-1.479-1.479c.212-.152.49-.403.842-.754l6.006-6.007a7.7 7.7 0 0 0 .754-.842l1.48 1.48c-.222.159-.5.411-.844.753l-2.15 2.151 2.077 2.076 1.991-1.993c.463-.463.769-.797.912-1.001l1.492 1.492a6.047 6.047 0 0 0-.739.65l-2.256 2.258zM141.046 89.549c-.6-.599-.775-1.309-.532-2.128.206-.66.658-1.34 1.356-2.039l1.562-1.562c.519-.518.854-.881 1.004-1.094l1.37 1.37c-.188.146-.562.488-1.116 1.027l-1.551 1.528c-.434.435-.696.795-.788 1.082-.123.35-.033.675.27.976.212.212.572.323 1.089.336l2.805-2.806c.13-.13.271-.285.423-.468.153-.183.236-.279.252-.297l1.326 1.326c-.144.114-.391.348-.74.696l-3.485 3.486c-.449.447-.728.739-.833.877l-1.249-1.249.412-.407c-.657-.04-1.181-.26-1.575-.654zM146.694 95.174a1.915 1.915 0 0 1-.586-1.472l-.408.409-1.204-1.203c.149-.107.399-.336.751-.688l6.027-6.027c.447-.447.724-.743.821-.889l1.293 1.293c-.152.121-.444.399-.877.832l-1.976 1.99c.567.131 1.021.363 1.354.697.604.602.81 1.339.618 2.213-.175.752-.592 1.46-1.253 2.12-.676.676-1.417 1.11-2.223 1.309-.947.221-1.727.026-2.337-.584zm3.761-4.105c-.252-.252-.643-.391-1.167-.412l-1.979 1.976c.01.479.131.839.367 1.075.299.299.688.357 1.167.185.381-.136.75-.384 1.108-.741.863-.864 1.03-1.557.504-2.083z"/></g><g opacity=".5" fill="none" stroke="#FFF" stroke-dasharray="3 1.5"><path d="M30.705-9.861 185.08 144.514M46.58-27.986l154.375 154.375"/></g></svg>